<svg xmlns="http://www.w3.org/2000/svg" xmlns:xlink="http://www.w3.org/1999/xlink" width="48" zoomAndPan="magnify" viewBox="0 0 36 36.000001" height="48" preserveAspectRatio="xMidYMid meet" version="1.0"><defs><clipPath id="9862d5cfe5"><path d="M 3.988281 3.503906 L 32.011719 3.503906 L 32.011719 31.523438 L 3.988281 31.523438 Z M 3.988281 3.503906 " clip-rule="nonzero"/></clipPath><clipPath id="623f3d5432"><path d="M 18 3.503906 C 10.261719 3.503906 3.988281 9.777344 3.988281 17.511719 C 3.988281 25.25 10.261719 31.523438 18 31.523438 C 25.738281 31.523438 32.011719 25.25 32.011719 17.511719 C 32.011719 9.777344 25.738281 3.503906 18 3.503906 Z M 18 3.503906 " clip-rule="nonzero"/></clipPath><clipPath id="81c3dd9c30"><path d="M 0.988281 0.503906 L 29.011719 0.503906 L 29.011719 28.523438 L 0.988281 28.523438 Z M 0.988281 0.503906 " clip-rule="nonzero"/></clipPath><clipPath id="1296454097"><path d="M 15 0.503906 C 7.261719 0.503906 0.988281 6.777344 0.988281 14.511719 C 0.988281 22.25 7.261719 28.523438 15 28.523438 C 22.738281 28.523438 29.011719 22.25 29.011719 14.511719 C 29.011719 6.777344 22.738281 0.503906 15 0.503906 Z M 15 0.503906 " clip-rule="nonzero"/></clipPath><clipPath id="db9f4d281a"><rect x="0" width="30" y="0" height="29"/></clipPath></defs><g clip-path="url(#9862d5cfe5)"><g clip-path="url(#623f3d5432)"><g transform="matrix(1, 0, 0, 1, 3, 3)"><g clip-path="url(#db9f4d281a)"><g clip-path="url(#81c3dd9c30)"><g clip-path="url(#1296454097)"><path fill="#000000" d="M 0.988281 0.503906 L 29.011719 0.503906 L 29.011719 28.523438 L 0.988281 28.523438 Z M 0.988281 0.503906 " fill-opacity="1" fill-rule="nonzero"/></g></g></g></g></g></g></svg>